<svg width="216" height="47" viewBox="0 0 216 47" fill="none" xmlns="http://www.w3.org/2000/svg">
<path d="M65.2147 39.8334V40.4306H60.019V30.9351H60.7357V39.8334H65.2147Z" fill="white"/>
<path d="M71.1868 33.7422V40.3709H70.8284C70.709 40.3709 70.6493 40.3112 70.6493 40.1918L70.5896 39.1766C70.291 39.5349 69.9326 39.8932 69.5146 40.0724C69.0966 40.3112 68.6785 40.4307 68.141 40.4307C67.7827 40.4307 67.4244 40.3709 67.1855 40.2515C66.8869 40.1321 66.7077 39.9529 66.4689 39.7738C66.2897 39.5349 66.1702 39.296 66.0508 38.9974C65.9314 38.6988 65.9314 38.3405 65.9314 37.9822V33.7422H66.5883V37.9822C66.5883 38.5794 66.7077 39.1169 67.0063 39.4752C67.3049 39.8335 67.723 40.0126 68.3202 40.0126C68.7382 40.0126 69.1563 39.8932 69.5146 39.6543C69.8729 39.4155 70.2312 39.1169 70.5298 38.7585V33.7422H71.1868Z" fill="white"/>
<path d="M78.2935 40.4307H77.6963C77.6366 40.4307 77.5769 40.4307 77.5769 40.371C77.5172 40.3113 77.5172 40.3113 77.5172 40.2516L75.4867 37.3253C75.4867 37.385 75.4269 37.5044 75.3672 37.5641L73.4562 40.2516C73.3965 40.3113 73.3965 40.3113 73.3367 40.371C73.277 40.4307 73.277 40.4307 73.2173 40.4307H72.6201L75.0686 37.0267L72.7395 33.8018H73.3367C73.3965 33.8018 73.4562 33.8018 73.4562 33.8615C73.4562 33.9212 73.5159 33.9212 73.5159 33.9809L75.4867 36.7878C75.4867 36.7281 75.4867 36.7281 75.5464 36.6683C75.5464 36.6086 75.6061 36.6086 75.6061 36.5489L77.4574 33.9809C77.4574 33.9212 77.5172 33.9212 77.5172 33.8615C77.5769 33.8615 77.5769 33.8018 77.6366 33.8018H78.2338L75.9047 37.0267L78.2935 40.4307Z" fill="white"/>
<path d="M84.803 33.7422V40.3709H84.4447C84.3253 40.3709 84.2656 40.3112 84.2656 40.1918L84.2058 39.1766C83.9072 39.5349 83.5489 39.8932 83.1309 40.0724C82.7128 40.3112 82.2948 40.4307 81.7573 40.4307C81.399 40.4307 81.0407 40.3709 80.8018 40.2515C80.5032 40.1321 80.324 39.9529 80.0851 39.7738C79.906 39.5349 79.7865 39.296 79.6671 38.9974C79.5476 38.6988 79.5476 38.3405 79.5476 37.9822V33.7422H80.2046V37.9822C80.2046 38.5794 80.324 39.1169 80.6226 39.4752C80.9212 39.8335 81.3393 40.0126 81.9365 40.0126C82.3545 40.0126 82.7725 39.8932 83.1309 39.6543C83.4892 39.4155 83.8475 39.1169 84.1461 38.7585V33.7422H84.803Z" fill="white"/>
<path d="M87.6099 35.3545C87.7293 35.0559 87.8488 34.817 87.9682 34.6378C88.0877 34.3989 88.2668 34.2198 88.446 34.1003C88.6252 33.9809 88.8043 33.8614 89.0432 33.742C89.2821 33.6823 89.4613 33.6226 89.7599 33.6226C89.8793 33.6226 90.0585 33.6226 90.1779 33.6823C90.2973 33.6823 90.4168 33.742 90.5362 33.8017L90.4765 34.2198C90.4765 34.2795 90.4168 34.3392 90.3571 34.3392C90.2973 34.3392 90.2376 34.3392 90.1182 34.2795C89.9987 34.2198 89.8793 34.2198 89.7001 34.2198C89.4612 34.2198 89.2224 34.2795 89.0432 34.3392C88.864 34.3989 88.6849 34.5184 88.5057 34.6975C88.3266 34.8767 88.2071 35.0559 88.0877 35.2948C87.9682 35.5336 87.8488 35.7725 87.7891 36.0711V40.3711H87.1321V33.742H87.4905C87.5502 33.742 87.6099 33.742 87.6696 33.8017C87.7294 33.8614 87.7293 33.8614 87.7293 33.9809L87.6099 35.3545Z" fill="white"/>
<path d="M97.1054 33.7422L93.2833 42.5209C93.2833 42.5806 93.2236 42.6403 93.1639 42.7C93.1042 42.7598 93.0445 42.7598 92.9847 42.7598H92.5667L93.7611 40.1321L90.9543 33.7422H91.4917C91.5515 33.7422 91.6112 33.7422 91.6709 33.8019C91.7306 33.8616 91.7306 33.8616 91.7306 33.9213L94 39.1169C94 39.1766 94.0597 39.2363 94.0597 39.2961C94.0597 39.3558 94.1194 39.4155 94.1194 39.5349C94.1194 39.4752 94.1791 39.4155 94.1791 39.2961C94.1791 39.2363 94.2389 39.1766 94.2389 39.1169L96.4485 33.9213C96.4485 33.8616 96.5082 33.8616 96.568 33.8019C96.6277 33.8019 96.6277 33.7422 96.6874 33.7422H97.1054Z" fill="white"/>
<path d="M102.48 30.6963V40.4307H101.823V30.6963H102.48Z" fill="white"/>
<path d="M105.705 31.4727C105.705 31.5324 105.705 31.6518 105.645 31.7115C105.586 31.7713 105.586 31.831 105.526 31.8907C105.466 31.9504 105.407 32.0101 105.347 32.0101C105.287 32.0698 105.227 32.0698 105.108 32.0698C105.048 32.0698 104.929 32.0698 104.869 32.0101C104.809 31.9504 104.75 31.9504 104.69 31.8907C104.63 31.831 104.571 31.7713 104.571 31.7115C104.511 31.6518 104.511 31.5921 104.511 31.4727C104.511 31.3532 104.511 31.2935 104.571 31.2338C104.63 31.1741 104.63 31.1144 104.69 31.0546C104.75 30.9949 104.809 30.9352 104.869 30.9352C104.929 30.8755 104.989 30.8755 105.108 30.8755C105.168 30.8755 105.287 30.8755 105.347 30.9352C105.407 30.9949 105.466 30.9949 105.526 31.0546C105.586 31.1144 105.645 31.1741 105.645 31.2338C105.705 31.2935 105.705 31.4129 105.705 31.4727ZM105.407 33.7419V40.3706H104.75V33.7419H105.407Z" fill="white"/>
<path d="M108.094 40.4305V34.4586L107.138 34.3989C107.019 34.3989 106.959 34.3392 106.959 34.2197V33.9809H108.094V33.1448C108.094 32.7865 108.154 32.4282 108.213 32.1296C108.273 31.831 108.452 31.5921 108.631 31.413C108.811 31.2338 109.05 31.0546 109.288 30.9949C109.527 30.8755 109.826 30.8755 110.124 30.8755C110.244 30.8755 110.423 30.8755 110.543 30.9352C110.662 30.9352 110.781 30.9949 110.901 31.0546V31.3532C110.901 31.413 110.901 31.413 110.841 31.413C110.781 31.413 110.781 31.413 110.722 31.413C110.662 31.413 110.602 31.413 110.543 31.413C110.483 31.413 110.363 31.413 110.244 31.413C110.005 31.413 109.826 31.4727 109.647 31.5324C109.468 31.5921 109.288 31.7116 109.169 31.831C109.05 31.9504 108.93 32.1893 108.87 32.3685C108.811 32.6073 108.751 32.9059 108.751 33.2045V34.0406H110.901V34.5183H108.751V40.4902H108.094V40.4305Z" fill="white"/>
<path d="M112.215 36.8473V36.9668C112.215 37.4445 112.274 37.9223 112.394 38.2806C112.513 38.6389 112.693 38.9972 112.872 39.2361C113.051 39.475 113.349 39.7139 113.648 39.8333C113.947 39.9528 114.305 40.0125 114.663 40.0125C115.022 40.0125 115.261 39.9528 115.559 39.8931C115.798 39.8333 116.037 39.7139 116.156 39.6542C116.335 39.5347 116.455 39.475 116.574 39.4153C116.694 39.3556 116.754 39.2959 116.813 39.2959C116.873 39.2959 116.933 39.2959 116.933 39.3556L117.112 39.5945C116.992 39.7139 116.873 39.8333 116.694 39.9528C116.515 40.0722 116.335 40.1917 116.097 40.2514C115.858 40.3111 115.619 40.3708 115.38 40.4305C115.141 40.4903 114.902 40.4903 114.663 40.4903C114.186 40.4903 113.767 40.4305 113.409 40.2514C113.051 40.0722 112.693 39.8333 112.454 39.5347C112.215 39.2361 111.976 38.8778 111.856 38.4C111.737 37.982 111.618 37.4445 111.618 36.907C111.618 36.4293 111.677 36.0112 111.797 35.5932C111.916 35.1751 112.155 34.8168 112.394 34.5779C112.633 34.2793 112.991 34.0405 113.349 33.921C113.708 33.7418 114.126 33.6821 114.604 33.6821C114.962 33.6821 115.32 33.7418 115.619 33.8613C115.917 33.9807 116.216 34.1599 116.455 34.3988C116.694 34.6377 116.873 34.9363 116.992 35.2946C117.112 35.6529 117.172 36.0709 117.172 36.5487C117.172 36.6682 117.172 36.7279 117.112 36.7279C117.112 36.7876 117.052 36.7876 116.992 36.7876H112.215V36.8473ZM116.634 36.4293C116.634 36.0709 116.574 35.7723 116.455 35.4737C116.335 35.1751 116.216 34.9363 116.037 34.7571C115.858 34.5779 115.619 34.3988 115.38 34.2793C115.141 34.1599 114.842 34.1002 114.544 34.1002C114.186 34.1002 113.887 34.1599 113.648 34.2793C113.349 34.3988 113.17 34.5182 112.931 34.7571C112.752 34.9363 112.573 35.1751 112.454 35.4737C112.334 35.7723 112.274 36.0709 112.215 36.4293H116.634Z" fill="white"/>
<path d="M122.427 36.1904H125.532V36.7271H122.427V36.1904Z" fill="white"/>
<path d="M134.371 35.235C134.909 35.235 135.386 35.2947 135.745 35.4142C136.103 35.5336 136.461 35.7128 136.7 35.892C136.939 36.1308 137.178 36.3697 137.297 36.6683C137.417 36.967 137.477 37.3253 137.477 37.6836C137.477 38.1017 137.417 38.46 137.238 38.8183C137.118 39.1767 136.879 39.4155 136.64 39.6544C136.402 39.8933 136.043 40.0725 135.625 40.1919C135.207 40.3114 134.789 40.3711 134.252 40.3711H131.385V30.9351H137.118V31.4726H132.042V35.235H134.371ZM134.371 39.8933C135.207 39.8933 135.804 39.7142 136.222 39.3558C136.64 38.9975 136.82 38.46 136.82 37.8031C136.82 37.1461 136.64 36.6086 136.222 36.31C135.804 35.9517 135.207 35.8322 134.371 35.8322H132.161V39.8933H134.371Z" fill="white"/>
<path d="M144.344 33.7422L140.522 42.5209C140.522 42.5806 140.463 42.6403 140.403 42.7C140.343 42.7598 140.283 42.7598 140.224 42.7598H139.746L140.94 40.1321L138.133 33.7422H138.671C138.731 33.7422 138.79 33.7422 138.85 33.8019C138.91 33.8616 138.91 33.8616 138.91 33.9213L141.179 39.1169C141.179 39.1766 141.239 39.2363 141.239 39.2961C141.239 39.3558 141.299 39.4155 141.299 39.5349C141.299 39.4752 141.358 39.4155 141.358 39.2961C141.358 39.2363 141.418 39.1766 141.418 39.1169L143.628 33.9213C143.628 33.8616 143.687 33.8616 143.747 33.8019C143.807 33.7422 143.807 33.7422 143.867 33.7422H144.344Z" fill="white"/>
<path d="M151.69 39.9528V42.5805C151.69 42.6999 151.63 42.8194 151.511 42.8194H151.093V40.4305H144.703V42.6402C144.703 42.6999 144.703 42.7596 144.643 42.7596C144.643 42.8194 144.583 42.8194 144.524 42.8194H144.105V39.9528H144.344C144.524 39.9528 144.643 39.8931 144.822 39.8333C145.001 39.7736 145.121 39.6542 145.3 39.475C145.479 39.2959 145.598 39.057 145.718 38.7584C145.837 38.4598 145.957 38.1014 146.076 37.6237C146.196 37.1459 146.255 36.6084 146.375 35.9515C146.435 35.2946 146.494 34.5779 146.554 33.6821H150.376V39.8333H151.69V39.9528ZM149.839 39.9528V34.2793H147.151C147.091 35.1751 147.032 35.9515 146.912 36.6084C146.793 37.2654 146.673 37.8028 146.554 38.2806C146.435 38.7584 146.255 39.1167 146.136 39.3556C145.957 39.6542 145.837 39.8333 145.658 40.0125H149.839V39.9528Z" fill="white"/>
<path d="M155.393 36.549C155.87 36.549 156.229 36.6088 156.527 36.7282C156.826 36.8477 157.065 36.9671 157.244 37.1463C157.423 37.3254 157.543 37.5046 157.662 37.7435C157.722 37.9823 157.781 38.2212 157.781 38.4601C157.781 38.7587 157.722 38.9976 157.602 39.2365C157.483 39.4753 157.363 39.7142 157.125 39.8337C156.945 40.0128 156.707 40.1323 156.408 40.2517C156.109 40.3712 155.751 40.3712 155.393 40.3712H153.004V33.7422H153.601V36.549H155.393ZM155.452 39.9531C155.751 39.9531 155.99 39.8934 156.229 39.8337C156.468 39.774 156.647 39.6545 156.766 39.5351C156.886 39.4156 157.005 39.2365 157.065 39.0573C157.125 38.8781 157.184 38.699 157.184 38.4601C157.184 38.2809 157.125 38.1018 157.065 37.9226C157.005 37.7435 156.886 37.624 156.766 37.4449C156.647 37.2657 156.468 37.206 156.229 37.1463C155.99 37.0865 155.691 37.0268 155.393 37.0268H153.661V39.9531H155.452Z" fill="white"/>
<path d="M165.247 33.7422C165.665 33.7422 165.963 33.8019 166.262 33.8616C166.56 33.9213 166.799 34.0408 166.919 34.22C167.098 34.3394 167.217 34.5186 167.277 34.6977C167.337 34.8769 167.396 35.056 167.396 35.2949C167.396 35.4144 167.396 35.5935 167.337 35.7727C167.277 35.9518 167.217 36.0713 167.098 36.2504C166.978 36.4296 166.859 36.5491 166.68 36.6685C166.501 36.7879 166.262 36.9074 166.023 36.9074C166.62 36.9671 167.098 37.1463 167.337 37.4449C167.635 37.7435 167.755 38.1018 167.755 38.5198C167.755 38.8184 167.695 39.0573 167.576 39.2962C167.456 39.5351 167.277 39.7142 167.098 39.8934C166.919 40.0726 166.62 40.192 166.322 40.2517C166.023 40.3114 165.724 40.3712 165.366 40.3712H162.977V33.7422H165.247ZM163.634 34.22V36.7879H165.187C165.426 36.7879 165.665 36.7282 165.844 36.6685C166.023 36.6088 166.202 36.4893 166.381 36.3699C166.501 36.2504 166.62 36.131 166.74 35.9518C166.799 35.7727 166.859 35.5935 166.859 35.4144C166.859 35.2352 166.859 35.1158 166.799 34.9963C166.74 34.8769 166.62 34.7574 166.501 34.638C166.381 34.5186 166.202 34.4588 165.963 34.3991C165.724 34.3394 165.485 34.2797 165.187 34.2797H163.634V34.22ZM165.366 39.9531C165.665 39.9531 165.903 39.8934 166.142 39.8337C166.381 39.774 166.56 39.6545 166.74 39.5351C166.919 39.4156 167.038 39.2365 167.098 39.0573C167.158 38.8781 167.217 38.699 167.217 38.4601C167.217 38.2809 167.158 38.1018 167.098 37.9226C167.038 37.7435 166.919 37.624 166.799 37.5046C166.68 37.3851 166.441 37.2657 166.262 37.206C166.083 37.1463 165.784 37.0865 165.426 37.0865H163.634V39.8934H165.366V39.9531Z" fill="white"/>
<path d="M178.564 34.2795H175.757V40.4307H175.1V34.2795H172.294V33.8018H178.564V34.2795Z" fill="white"/>
<path d="M180.475 34.9364C180.774 34.5184 181.132 34.2198 181.49 33.9809C181.908 33.742 182.327 33.6226 182.804 33.6226C183.64 33.6226 184.238 33.9212 184.715 34.4587C185.193 34.9961 185.372 35.892 185.372 37.0267C185.372 37.5044 185.313 37.9822 185.193 38.4003C185.074 38.8183 184.895 39.1766 184.656 39.4752C184.417 39.7739 184.118 40.0127 183.76 40.1919C183.402 40.3711 182.983 40.4308 182.506 40.4308C182.028 40.4308 181.67 40.3711 181.311 40.1919C180.953 40.0127 180.714 39.7739 180.475 39.4752V42.7002H179.818V33.742H180.177C180.296 33.742 180.356 33.8017 180.356 33.9212L180.475 34.9364ZM180.475 38.9975C180.595 39.1766 180.714 39.3558 180.893 39.4752C181.072 39.5947 181.192 39.7141 181.311 39.7739C181.49 39.8336 181.61 39.8933 181.789 39.953C181.968 40.0127 182.147 40.0127 182.327 40.0127C182.745 40.0127 183.043 39.953 183.342 39.7739C183.64 39.6544 183.879 39.4155 184.058 39.1766C184.238 38.9378 184.417 38.5794 184.536 38.2211C184.656 37.8628 184.715 37.4447 184.715 37.0267C184.715 36.0114 184.536 35.2948 184.178 34.817C183.82 34.3392 183.282 34.1003 182.625 34.1003C182.207 34.1003 181.789 34.2198 181.431 34.4587C181.072 34.6975 180.774 34.9961 180.475 35.4142V38.9975Z" fill="white"/>
<path d="M187.463 36.8473V36.9668C187.463 37.4445 187.522 37.9223 187.642 38.2806C187.761 38.6389 187.94 38.9972 188.119 39.2361C188.299 39.475 188.597 39.7139 188.896 39.8333C189.194 39.9528 189.553 40.0125 189.911 40.0125C190.269 40.0125 190.508 39.9528 190.807 39.8931C191.046 39.8333 191.285 39.7139 191.404 39.6542C191.583 39.5347 191.703 39.475 191.822 39.4153C191.942 39.3556 192.001 39.2959 192.061 39.2959C192.121 39.2959 192.18 39.2959 192.18 39.3556L192.36 39.5945C192.24 39.7139 192.121 39.8333 191.942 39.9528C191.762 40.0722 191.583 40.1917 191.344 40.2514C191.106 40.3111 190.867 40.3708 190.628 40.4305C190.389 40.4903 190.15 40.4903 189.911 40.4903C189.433 40.4903 189.015 40.4305 188.657 40.2514C188.299 40.0722 187.94 39.8333 187.701 39.5347C187.463 39.2361 187.224 38.8778 187.104 38.4C186.985 37.982 186.865 37.4445 186.865 36.907C186.865 36.4293 186.925 36.0112 187.045 35.5932C187.164 35.1751 187.403 34.8168 187.642 34.5779C187.881 34.2793 188.239 34.0405 188.597 33.921C188.956 33.7418 189.374 33.6821 189.851 33.6821C190.21 33.6821 190.568 33.7418 190.867 33.8613C191.165 33.9807 191.464 34.1599 191.703 34.3988C191.942 34.6377 192.121 34.9363 192.24 35.2946C192.36 35.6529 192.419 36.0709 192.419 36.5487C192.419 36.6682 192.419 36.7279 192.36 36.7279C192.36 36.7876 192.3 36.7876 192.24 36.7876H187.463V36.8473ZM191.882 36.4293C191.882 36.0709 191.822 35.7723 191.703 35.4737C191.583 35.1751 191.464 34.9363 191.285 34.7571C191.106 34.5779 190.867 34.3988 190.628 34.2793C190.389 34.1599 190.09 34.1002 189.792 34.1002C189.433 34.1002 189.135 34.1599 188.896 34.2793C188.597 34.3988 188.418 34.5182 188.179 34.7571C188 34.9363 187.821 35.1751 187.701 35.4737C187.582 35.7723 187.522 36.0709 187.463 36.4293H191.882Z" fill="white"/>
<path d="M199.466 33.7422V40.3712H198.809V37.0268H194.868V40.3712H194.211V33.7422H194.868V36.549H198.809V33.7422H199.466Z" fill="white"/>
<path d="M208.245 39.9528V42.5805C208.245 42.6999 208.186 42.8194 208.066 42.8194H207.708V40.4305H201.318V42.6402C201.318 42.6999 201.318 42.7596 201.258 42.7596C201.258 42.8194 201.198 42.8194 201.138 42.8194H200.72V39.9528H200.959C201.138 39.9528 201.258 39.8931 201.437 39.8333C201.616 39.7736 201.736 39.6542 201.915 39.475C202.094 39.2959 202.213 39.057 202.333 38.7584C202.452 38.4598 202.572 38.1014 202.691 37.6237C202.811 37.1459 202.87 36.6084 202.99 35.9515C203.05 35.2946 203.109 34.5779 203.169 33.6821H206.991V39.8333H208.245V39.9528ZM206.394 39.9528V34.2793H203.706C203.647 35.1751 203.587 35.9515 203.468 36.6084C203.348 37.2654 203.229 37.8028 203.109 38.2806C202.99 38.7584 202.811 39.1167 202.691 39.3556C202.512 39.6542 202.393 39.8333 202.213 40.0125H206.394V39.9528Z" fill="white"/>
<path d="M209.798 36.8473V36.9668C209.798 37.4445 209.858 37.9223 209.977 38.2806C210.097 38.6389 210.276 38.9972 210.455 39.2361C210.634 39.475 210.933 39.7139 211.231 39.8333C211.53 39.9528 211.888 40.0125 212.246 40.0125C212.605 40.0125 212.844 39.9528 213.142 39.8931C213.381 39.8333 213.62 39.7139 213.74 39.6542C213.919 39.5347 214.038 39.475 214.158 39.4153C214.277 39.3556 214.337 39.2959 214.396 39.2959C214.456 39.2959 214.516 39.2959 214.516 39.3556L214.695 39.5945C214.576 39.7139 214.456 39.8333 214.277 39.9528C214.098 40.0722 213.919 40.1917 213.68 40.2514C213.441 40.3111 213.202 40.3708 212.963 40.4305C212.724 40.4903 212.485 40.4903 212.246 40.4903C211.769 40.4903 211.351 40.4305 210.992 40.2514C210.634 40.0722 210.276 39.8333 210.037 39.5347C209.798 39.2361 209.559 38.8778 209.44 38.4C209.32 37.982 209.201 37.4445 209.201 36.907C209.201 36.4293 209.26 36.0112 209.38 35.5932C209.499 35.1751 209.738 34.8168 209.977 34.5779C210.216 34.2793 210.574 34.0405 210.933 33.921C211.291 33.7418 211.709 33.6821 212.187 33.6821C212.545 33.6821 212.903 33.7418 213.202 33.8613C213.501 33.9807 213.799 34.1599 214.038 34.3988C214.277 34.6377 214.456 34.9363 214.576 35.2946C214.695 35.6529 214.755 36.0709 214.755 36.5487C214.755 36.6682 214.755 36.7279 214.695 36.7279C214.695 36.7876 214.635 36.7876 214.576 36.7876H209.798V36.8473ZM214.217 36.4293C214.217 36.0709 214.158 35.7723 214.038 35.4737C213.919 35.1751 213.799 34.9363 213.62 34.7571C213.441 34.5779 213.202 34.3988 212.963 34.2793C212.724 34.1599 212.426 34.1002 212.127 34.1002C211.769 34.1002 211.47 34.1599 211.231 34.2793C210.933 34.3988 210.753 34.5182 210.515 34.7571C210.335 34.9363 210.156 35.1751 210.037 35.4737C209.917 35.7723 209.858 36.0709 209.798 36.4293H214.217Z" fill="white"/>
<path d="M158.379 6.271C158.916 6.271 159.274 6.68903 159.274 7.2265C159.274 7.76397 158.856 8.12229 158.379 8.12229H152.407V22.6938C152.407 23.2312 151.989 23.709 151.391 23.709H151.332C150.794 23.709 150.376 23.291 150.376 22.8132V8.12229H144.404C143.867 8.12229 143.449 7.70426 143.449 7.2265C143.449 6.68903 143.867 6.271 144.404 6.271H158.379Z" fill="url(#paint0_linear)"/>
<path d="M162.081 11.9441C162.917 10.1525 164.53 9.67472 166.083 9.67472C166.62 9.615 167.038 9.97332 167.098 10.5108C167.158 11.0483 166.799 11.4663 166.262 11.5261C166.202 11.5261 166.142 11.5261 166.023 11.5261C163.276 11.5261 162.081 13.7357 162.081 16.4231V22.4549C162.081 22.9924 161.663 23.4104 161.126 23.4104H161.066C160.588 23.4701 160.111 23.1118 160.051 22.5743V10.5705C160.051 9.37612 161.962 9.25667 161.962 10.5705L162.081 11.9441Z" fill="url(#paint1_linear)"/>
<path d="M177.25 9.73437C180.296 10.5705 182.147 13.0191 182.207 16.483C182.267 17.0802 181.968 17.7372 180.893 17.7372H170.323C170.741 20.1261 172.831 21.858 175.22 21.7983C176.534 21.858 177.788 21.4399 178.803 20.6636C179.759 19.8274 181.132 20.9024 180.117 21.9774C178.803 23.1122 177.071 23.7094 175.339 23.5899C173.249 23.6497 171.278 22.7538 169.905 21.2011C166.978 17.3788 168.233 11.2274 173.249 9.79409C174.563 9.37604 175.996 9.37604 177.25 9.73437ZM170.263 16.0649H180.416C180.296 13.9149 178.863 12.0635 176.773 11.526C175.817 11.2872 174.802 11.2872 173.846 11.526C171.756 12.0635 170.323 13.9149 170.263 16.0649Z" fill="url(#paint2_linear)"/>
<path d="M196.898 15.4673C196.898 13.1382 195.047 11.2869 192.718 11.2869C189.911 11.2869 187.701 13.5563 187.642 16.3631V22.574C187.701 23.0518 187.343 23.4699 186.865 23.5296C186.806 23.5296 186.746 23.5296 186.686 23.5296C186.208 23.5893 185.731 23.231 185.671 22.7532C185.671 22.6935 185.671 22.6338 185.671 22.6338V10.5702C185.671 10.0328 186.089 9.61471 186.626 9.61471C187.164 9.61471 187.582 10.0328 187.582 10.5702V12.2424C188.537 10.2716 190.628 9.43555 192.718 9.43555C195.823 9.43555 198.809 11.5855 198.809 15.4673V22.574C198.869 23.0518 198.511 23.4699 198.033 23.5296C197.973 23.5296 197.914 23.5296 197.854 23.5296C197.376 23.5893 196.898 23.231 196.898 22.7532C196.898 22.6935 196.898 22.6935 196.898 22.6338V15.4673Z" fill="url(#paint3_linear)"/>
<path d="M209.141 9.5552C210.933 9.5552 212.665 10.3316 213.501 11.7052V6.33026C213.501 5.07611 215.471 5.07611 215.471 6.33026V22.5744C215.531 23.0522 215.113 23.4702 214.635 23.5299C214.576 23.5299 214.516 23.5299 214.456 23.5299C213.978 23.5897 213.62 23.2313 213.56 22.8133C213.56 22.7536 213.56 22.6938 213.56 22.6341V21.3203C212.605 22.873 210.933 23.7688 209.141 23.7091C208.245 23.7091 207.409 23.5299 206.573 23.2313C203.647 22.0369 202.154 19.3495 202.213 16.244C202.154 12.601 205.14 9.61492 208.783 9.5552C208.902 9.5552 209.022 9.5552 209.141 9.5552ZM213.501 17.6773V15.5273C213.501 13.1385 211.649 11.4663 209.26 11.4066C207.29 11.3468 205.498 12.4815 204.662 14.2732C204.423 14.9301 204.304 15.587 204.244 16.244C204.125 17.9759 204.901 19.7078 206.215 20.8425C206.991 21.4397 207.947 21.798 208.962 21.9175C211.41 21.8577 213.501 20.305 213.501 17.6773Z" fill="url(#paint4_linear)"/>
<path d="M67.5438 23.6493C62.7662 23.5299 59.0038 19.6481 59.1233 14.8706C59.1233 14.8109 59.1233 14.7511 59.1233 14.6914C59.2427 10.5708 62.1093 6.74875 66.23 6.09184C68.8577 5.6738 72.0826 6.45015 73.9339 8.48061C74.352 9.01809 73.695 9.55556 73.277 9.07781C71.6048 7.22651 68.7382 6.56959 66.3494 6.98763C62.587 7.58482 60.0788 11.0485 59.9593 14.7511C59.8399 19.0509 63.244 22.6938 67.5438 22.8133C69.9327 22.873 72.2618 21.7383 73.695 19.8273V15.4081H67.9619C67.723 15.4081 67.6036 15.1692 67.6036 14.99C67.6036 14.8109 67.7827 14.6317 67.9619 14.6317H73.9936C74.352 14.6317 74.4714 14.8706 74.4714 15.1692V19.9467C74.4714 20.1856 74.4117 20.3648 74.2922 20.5439C72.7395 22.4549 70.2313 23.709 67.5438 23.6493Z" fill="white"/>
<path d="M79.3088 23.1711C79.3088 23.41 79.1296 23.6489 78.831 23.6489C78.5921 23.6489 78.3532 23.4697 78.3532 23.2309V6.27024C78.3532 6.03136 78.5921 5.79248 78.831 5.79248C79.0699 5.79248 79.2491 5.97164 79.3088 6.27024V23.1711Z" fill="white"/>
<path d="M84.385 21.1994C83.1906 19.7661 82.5934 17.9148 82.7726 16.0635C83.0114 13.1969 84.8031 10.5692 87.6696 9.7331C88.9835 9.37477 90.4168 9.37477 91.7306 9.7331C94.5375 10.5692 96.5083 13.1372 96.6874 16.0635C96.8666 17.9148 96.2694 19.7661 95.075 21.1994C92.4473 24.1854 87.9085 24.4243 84.9822 21.7966C84.7433 21.5577 84.5642 21.3786 84.385 21.1994ZM88.028 10.6289C83.8475 11.7636 82.4142 17.3176 85.1614 20.6022C87.4308 23.1702 91.3723 23.4091 93.8806 21.08C94.0597 20.9008 94.2389 20.7814 94.3583 20.6022C97.1055 17.3176 95.6125 11.7636 91.432 10.6886C90.3571 10.3303 89.1626 10.3303 88.028 10.6289Z" fill="white"/>
<path d="M113.23 16.2437C113.29 19.4089 111.856 22.0366 108.99 23.2311C107.079 24.0074 104.869 23.888 103.078 22.813C102.182 22.2755 101.465 21.4394 101.107 20.4242V23.0519C101.107 23.2908 100.987 23.5297 100.748 23.5297H100.689C100.45 23.5297 100.211 23.3505 100.211 23.1116V6.27025C100.211 6.03137 100.39 5.79248 100.629 5.79248H100.689C100.928 5.79248 101.107 5.97164 101.166 6.21053V6.27025V12.7201C102.062 10.6299 104.152 9.55492 106.362 9.49519C107.318 9.43547 108.333 9.61464 109.229 10.0327C111.677 11.0479 113.29 13.4965 113.23 16.2437ZM106.661 22.813C107.855 22.7533 108.99 22.3353 109.945 21.6186C111.558 20.3047 112.454 18.3339 112.334 16.2437C112.334 15.4673 112.155 14.6312 111.856 13.9146C110.901 11.7646 108.691 10.391 106.362 10.5105C103.555 10.5105 101.286 12.7201 101.166 15.4673V17.7964C101.166 19.7075 102.241 21.3797 103.973 22.2158C104.809 22.6339 105.705 22.813 106.661 22.813Z" fill="white"/>
<path d="M122.905 9.49561C124.039 9.49561 125.114 9.79422 126.13 10.3317C127.025 10.9289 127.742 11.8248 128.1 12.84V10.0928C128.1 9.85394 128.22 9.67477 128.459 9.61505H128.518C128.757 9.61505 128.996 9.79422 128.996 10.0331V22.9331C128.996 23.172 128.817 23.4109 128.578 23.4109H128.518C128.28 23.4109 128.1 23.2317 128.041 23.0525V22.9928V20.2456C127.682 21.2609 126.966 22.1567 126.07 22.7539C124.278 23.8289 122.128 23.9484 120.158 23.172C117.231 21.9775 115.798 19.3498 115.858 16.1845C115.917 13.497 117.41 10.9887 119.919 9.97338C120.934 9.67477 121.889 9.49561 122.905 9.49561ZM128.041 17.7373V15.4081C128.041 13.497 126.966 11.8248 125.234 10.9887C124.457 10.6303 123.681 10.4512 122.845 10.4512C120.516 10.3317 118.306 11.7053 117.351 13.8553C117.052 14.572 116.873 15.4081 116.873 16.1845C116.694 18.2748 117.59 20.3053 119.262 21.5595C120.994 22.9331 123.323 23.172 125.294 22.1567C126.966 21.3206 128.041 19.6484 128.041 17.7373Z" fill="white"/>
<path d="M134.311 23.1711C134.311 23.41 134.132 23.6489 133.834 23.6489C133.595 23.6489 133.356 23.4697 133.356 23.2309V6.27024C133.356 6.03136 133.595 5.79248 133.834 5.79248C134.072 5.79248 134.252 5.97164 134.311 6.27024V23.1711Z" fill="white"/>
<path d="M45.0889 28.9644C45.0889 28.9644 43.2973 41.9834 26.5159 46.0444C26.5756 46.0444 26.9936 29.4421 45.0889 28.9644Z" fill="url(#paint5_linear)"/>
<path d="M45.089 9.19678C45.089 9.19678 30.756 12.4217 24.9034 28.9644C23.3507 34.7573 22.5146 40.6099 24.1271 46.582C24.1271 46.582 23.1715 40.1322 28.5464 33.4434C33.9212 26.7547 45.8653 25.7992 45.8653 25.7992C45.8653 25.7992 48.2541 19.5882 45.089 9.19678Z" fill="url(#paint6_linear)"/>
<path d="M21.6785 46.6417C21.6785 46.6417 17.6772 28.845 29.3227 16.7814C33.6823 12.4219 39.953 8.65947 39.953 8.65947L36.9072 0C36.9072 0 25.0229 5.91233 20.1258 19.23C15.2287 32.5476 20.0661 44.9098 21.6785 46.6417Z" fill="url(#paint7_linear)"/>
<path d="M22.8132 2.92541C23.8882 3.88093 24.6646 5.13506 24.9632 6.50863C25.6201 5.73227 26.1576 5.07534 26.6353 4.53786C25.4409 3.94065 24.1271 3.40317 22.8132 2.92541ZM23.5299 2.68652C25.0229 3.22401 26.8145 4.11981 26.9339 4.17954H26.9937C27.5909 3.58233 27.8895 3.28373 27.8895 3.28373C26.4562 2.86568 25.0229 2.68652 23.5299 2.68652ZM24.6048 6.86696C24.3062 5.19478 23.291 3.76149 21.8577 2.80596C21.0216 3.70177 20.305 4.6573 19.7675 5.73227C19.2897 6.86696 18.9314 8.06137 18.6925 9.25577C18.5133 9.97242 18.3939 10.6293 18.3342 11.2863C19.23 11.4057 20.2452 11.5252 21.3202 11.6446C22.3355 9.97242 23.4104 8.41969 24.6048 6.86696ZM18.2745 11.7043C18.155 12.5404 18.0953 13.257 17.9759 13.8542C17.737 15.825 17.6773 17.3778 17.5578 18.7513V19.0499H17.6773C17.737 19.0499 17.7967 19.1097 17.8564 19.1097C18.6925 16.6611 19.8272 14.2723 21.141 12.0029C20.1258 12.0029 19.1703 11.8835 18.2745 11.7043ZM17.6773 19.5277H17.5578C17.5578 19.7666 17.5578 20.0055 17.4981 20.2443C17.5578 20.0055 17.6175 19.7666 17.6773 19.5277C17.737 19.5277 17.737 19.5277 17.6773 19.5277ZM8.42059 7.70304C6.03177 9.55438 4.00127 11.8835 2.56798 14.5112C2.74714 14.9292 4.00127 16.5417 8.95807 17.7958C9.31639 15.5264 10.033 13.3168 11.0483 11.2265C11.2274 10.8682 11.4066 10.4502 11.6455 10.0321C9.55527 9.13633 8.71919 8.18081 8.42059 7.70304ZM12.0635 10.2113C11.8247 10.6293 11.6455 11.0474 11.4663 11.4057C10.4511 13.4959 9.79416 15.7056 9.37611 17.975C11.9441 18.5124 14.5121 18.9305 17.0801 19.0499V18.811C17.1398 17.3778 17.2592 15.825 17.4981 13.8542C17.5578 13.257 17.6175 12.5404 17.7967 11.7043C15.8856 11.4057 13.9746 10.9279 12.0635 10.2113ZM17.0801 19.468C14.4524 19.2888 11.8844 18.9305 9.31639 18.3333C9.19695 19.0499 9.13723 19.7069 9.07751 20.2443C8.83863 22.1554 8.77891 24.1262 8.89835 26.0372C11.2872 26.3955 13.676 26.6344 16.1245 26.7539C16.3037 25.0817 16.6023 23.4095 17.0801 21.7971C17.0801 21.7374 17.0203 21.7374 17.0203 21.6776C17.0203 21.1401 17.0203 20.3638 17.0801 19.468ZM16.0051 27.2316C13.6163 27.1122 11.2274 26.8733 8.83863 26.5747C8.89835 27.3511 8.95807 28.1274 9.07751 28.9038C9.25667 30.8149 9.67472 32.7259 10.2122 34.5773C11.8844 34.8161 13.7954 34.9953 16.0648 35.1745H16.1245C15.8259 32.5468 15.7662 29.8593 16.0051 27.2316ZM16.1842 35.5925C16.1245 35.6522 16.0648 35.6522 16.0051 35.6522C13.8551 35.4731 11.9441 35.2939 10.3316 35.055C10.69 36.13 11.1677 37.1452 11.6455 38.1605C12.3621 39.7132 13.3177 41.1465 14.3926 42.4604C15.7662 42.6395 17.0801 42.8187 17.9759 42.8784C17.1398 40.4896 16.5426 38.041 16.1842 35.5925ZM18.2147 43.3562C17.9161 43.2964 16.6023 43.177 14.9301 42.9381C15.6468 43.7145 16.4828 44.4311 17.4384 45.0283C18.0356 45.3867 18.6925 45.745 19.3494 46.0436C18.9314 45.0881 18.5731 44.1922 18.2147 43.3562ZM19.5883 46.5811H19.4689L19.2897 46.5213C18.5731 46.2227 17.8564 45.8644 17.1398 45.4464C16.0648 44.7297 15.0496 43.8936 14.1538 42.8784C12.1233 42.6395 10.1525 42.2215 8.1817 41.7437C11.4663 44.5506 15.4676 46.3422 19.7078 46.9991C19.7078 46.8199 19.648 46.7005 19.5883 46.5811ZM11.2872 38.3396C10.7497 37.2647 10.2719 36.13 9.9136 34.9953C4.9568 34.2786 2.56798 33.3231 1.49301 32.7259C2.56798 35.5925 4.35959 38.1605 6.62897 40.191L6.68869 40.2507L7.16646 40.7285C7.82338 41.3257 10.8691 41.9229 13.7357 42.3409C12.8399 41.0868 12.0038 39.7132 11.2872 38.3396ZM9.73444 34.4578C9.19695 32.6662 8.83863 30.8149 8.65947 28.9038C8.54003 28.0677 8.48031 27.2316 8.42059 26.3955C3.04574 25.4997 0.895807 24.1859 0 23.3498C0 23.947 0 24.5442 0 25.0817C0 25.2011 0 25.2609 0.0597205 25.3803C0.119441 27.6497 0.477764 29.8593 1.25413 31.9496C1.91105 32.487 3.94155 33.6217 9.73444 34.4578ZM2.3291 14.9889C1.13469 17.4375 0.358323 20.0652 0.119441 22.7526C0.597205 23.4692 2.38882 25.022 8.42059 26.0372C8.30114 24.1262 8.42058 22.1554 8.59975 20.2443C8.65947 19.6471 8.77891 18.9902 8.83863 18.2736C4.35959 17.1389 2.80686 15.7056 2.3291 14.9889ZM16.3037 5.13506C14.6315 6.32947 13.2579 7.94192 12.3024 9.79326C14.094 10.4502 15.9454 10.9279 17.8564 11.2265C17.9759 10.6293 18.0953 9.9127 18.2147 9.19605C18.4536 7.94192 18.8119 6.74752 19.2897 5.55311C19.7675 4.6573 20.3647 3.76149 21.0813 2.98513C19.4091 3.40317 17.7967 4.17954 16.3037 5.13506ZM8.77891 7.46416C9.01779 7.82248 9.79416 8.71829 11.9441 9.6141C12.8996 7.70304 14.3329 6.03087 16.0648 4.77674C17.2592 4.00037 18.5133 3.34345 19.8869 2.86568C15.8259 3.46289 12.0038 5.07534 8.77891 7.46416Z" fill="url(#paint8_linear)"/>
<defs>
<linearGradient id="paint0_linear" x1="145.07" y1="17.8274" x2="157.707" y2="5.19595" gradientUnits="userSpaceOnUse">
<stop stop-color="#F6F2B8"/>
<stop offset="0.42" stop-color="#DFA857"/>
<stop offset="0.76" stop-color="#F6F2B8"/>
<stop offset="1" stop-color="#B78649"/>
</linearGradient>
<linearGradient id="paint1_linear" x1="157.445" y1="20.1374" x2="167.283" y2="10.3052" gradientUnits="userSpaceOnUse">
<stop stop-color="#F6F2B8"/>
<stop offset="0.42" stop-color="#DFA857"/>
<stop offset="0.76" stop-color="#F6F2B8"/>
<stop offset="1" stop-color="#B78649"/>
</linearGradient>
<linearGradient id="paint2_linear" x1="170.325" y1="21.6404" x2="180.406" y2="11.5596" gradientUnits="userSpaceOnUse">
<stop stop-color="#F6F2B8"/>
<stop offset="0.42" stop-color="#DFA857"/>
<stop offset="0.76" stop-color="#F6F2B8"/>
<stop offset="1" stop-color="#B78649"/>
</linearGradient>
<linearGradient id="paint3_linear" x1="185.75" y1="23.0839" x2="197.392" y2="11.4485" gradientUnits="userSpaceOnUse">
<stop stop-color="#F6F2B8"/>
<stop offset="0.42" stop-color="#DFA857"/>
<stop offset="0.76" stop-color="#F6F2B8"/>
<stop offset="1" stop-color="#B78649"/>
</linearGradient>
<linearGradient id="paint4_linear" x1="204.824" y1="22.2413" x2="218.273" y2="8.79228" gradientUnits="userSpaceOnUse">
<stop stop-color="#F6F2B8"/>
<stop offset="0.42" stop-color="#DFA857"/>
<stop offset="0.76" stop-color="#F6F2B8"/>
<stop offset="1" stop-color="#B78649"/>
</linearGradient>
<linearGradient id="paint5_linear" x1="24.8007" y1="42.996" x2="46.1272" y2="30.6864" gradientUnits="userSpaceOnUse">
<stop stop-color="#F6F2B8"/>
<stop offset="0.42" stop-color="#DFA857"/>
<stop offset="0.76" stop-color="#F6F2B8"/>
<stop offset="1" stop-color="#B78649"/>
</linearGradient>
<linearGradient id="paint6_linear" x1="18.4471" y1="36.7446" x2="50.3568" y2="18.3203" gradientUnits="userSpaceOnUse">
<stop stop-color="#F6F2B8"/>
<stop offset="0.42" stop-color="#DFA857"/>
<stop offset="0.76" stop-color="#F6F2B8"/>
<stop offset="1" stop-color="#B78649"/>
</linearGradient>
<linearGradient id="paint7_linear" x1="14.949" y1="42.7556" x2="38.9558" y2="1.18294" gradientUnits="userSpaceOnUse">
<stop stop-color="#F6F2B8"/>
<stop offset="0.42" stop-color="#DFA857"/>
<stop offset="0.76" stop-color="#F6F2B8"/>
<stop offset="1" stop-color="#B78649"/>
</linearGradient>
<linearGradient id="paint8_linear" x1="5.51136" y1="40.4951" x2="27.2257" y2="2.88306" gradientUnits="userSpaceOnUse">
<stop stop-color="#F6F2B8"/>
<stop offset="0.42" stop-color="#DFA857"/>
<stop offset="0.76" stop-color="#F6F2B8"/>
<stop offset="1" stop-color="#B78649"/>
</linearGradient>
</defs>
</svg>
